<?xml version="1.0" encoding="UTF-8" standalone="no"?>
<svg id="svg2" xmlns:rdf="http://www.w3.org/1999/02/22-rdf-syntax-ns#" xmlns="http://www.w3.org/2000/svg" xml:space="preserve" height="122.67" width="156" version="1.1" xmlns:cc="http://creativecommons.org/ns#" viewBox="0 0 156 122.66667" xmlns:dc="http://purl.org/dc/elements/1.1/"><metadata id="metadata8"><rdf:RDF><cc:Work rdf:about=""><dc:format>image/svg+xml</dc:format><dc:type rdf:resource="http://purl.org/dc/dcmitype/StillImage"/></cc:Work></rdf:RDF></metadata><g id="g10" transform="matrix(1.3333 0 0 -1.3333 0 122.67)"><g id="g12" transform="scale(.1)"><path id="path14" d="m1112.3 42.98h-11.25v-30h-7.5v30h-11.25v6.7578h29.21v-6.7578zm50.23-30h-7.5v29.258l-10.51-29.258h-7.5l-10.51 29.258v-29.258h-7.5v36.02h12.78l8.2-23.98 9 23.98h12.78v-36.02z"/><path id="path16" d="m384.77 146.5 138.75 232.5c3.75-14.262 10.46-42.73 11.992-47.27-6.76-11.99-114.03-197.96-114.03-197.96s158.29 130.46 165.79 136.48c2.96-3.012 116.99-141.76 116.99-141.76s-54.032 180-57.782 191.99c3.008 4.54 21.02 33.008 32.27 51.02l48.75-226.48-98.24-135h420.74l-201.02 901.48h-279.72l-569.26-900h448.52zm143.24 241.48 88.47 148.52h26.25l32.27-148.52z" fill="#e3d4ad"/><path id="path18" d="m610.51 876.27h208.47l184.52-829.54h-300l67.5 90.79-96.758 430.46h-79.47l-256.53-422.22 48.01-98.24h-296.99l-29.26-18.008h358.52l-57.04 116.99 243.75 405.74h52.5l92.27-410.23-82.5-112.5h359.26l-192.03 864.72h-236.25z"/><path id="path20" d="m300.74 198.26 30.742 19.488-55.46 131.99 176.25 110.28-60.79 107.96 170.28 82.5-54.774 96.758 131.25 58.524l-48.01 70.51-11.25 15.74-546.71-862.5z"/><path id="path22" d="m554.26 329.51c-5.282-9.032-67.5-116.25-67.5-116.25s88.468 73.468 101.25 83.238c8.976-10.512 71.25-86.25 71.25-86.25s-30.742 103.52-33.75 113.24c4.488 7.5 28.468 45.742 28.468 45.742h-109.49s8.242-32.218 9.774-39.718" fill="#a71930"/><path id="path24" d="m338.24 145.76 256.53 422.22h79.492l96.76-430.46-67.5-90.79h300l-184.52 829.54h-208.47l51.76-78.75-129.77-58.52 55.51-96.76-170.28-81.76 57.04-105-176.25-110.97 54.72-133.52-263.98-163.47h296.99z" fill="#a71930"/></g></g></svg>
